<svg width="92" height="92" viewBox="0 0 92 92" fill="none" xmlns="http://www.w3.org/2000/svg">
<path d="M46 84.3334C40.6972 84.3334 35.7139 83.3265 31.05 81.3127C26.3861 79.2989 22.3292 76.5683 18.8792 73.1209C15.4292 69.6709 12.6986 65.6139 10.6873 60.95C8.67612 56.2861 7.66923 51.3028 7.66667 46C7.66667 40.6972 8.67356 35.7139 10.6873 31.05C12.7011 26.3861 15.4317 22.3292 18.8792 18.8792C22.3292 15.4292 26.3861 12.6986 31.05 10.6874C35.7139 8.67613 40.6972 7.66924 46 7.66669C51.3028 7.66669 56.2861 8.67358 60.95 10.6874C65.6139 12.7011 69.6708 15.4317 73.1208 18.8792C76.5708 22.3292 79.3027 26.3861 81.3165 31.05C83.3303 35.7139 84.3359 40.6972 84.3333 46C84.3333 51.3028 83.3264 56.2861 81.3127 60.95C79.2989 65.6139 76.5683 69.6709 73.1208 73.1209C69.6708 76.5709 65.6139 79.3027 60.95 81.3165C56.2861 83.3303 51.3028 84.3359 46 84.3334ZM28.5583 48.3L42.2625 38.3334L28.5583 28.3667L25.1083 32.9667L32.4875 38.3334L25.1083 43.7L28.5583 48.3ZM40.25 65.3583L46 59.6084L51.75 65.3583L57.5 59.6084L61.2375 63.3459L65.2625 59.3209L57.5 51.5584L51.75 57.3084L46 51.5584L40.25 57.3084L34.5 51.5584L26.7375 59.3209L30.7625 63.3459L34.5 59.6084L40.25 65.3583ZM63.4417 48.3L66.8917 43.7L59.5125 38.3334L66.8917 32.9667L63.4417 28.3667L49.7375 38.3334L63.4417 48.3Z" fill="#FF4C29"/>
</svg>
