<svg width="92" height="92" viewBox="0 0 92 92" fill="none" xmlns="http://www.w3.org/2000/svg">
<path d="M77.9844 12.5062C77.2141 11.9772 76.3261 11.6446 75.3977 11.5375C74.4694 11.4303 73.529 11.552 72.6584 11.8917C67.6164 13.8539 57.4353 17.1458 46 17.1458C34.5647 17.1458 24.38 13.8539 19.3308 11.8917C18.4596 11.5535 17.5191 11.4328 16.5908 11.5399C15.6624 11.6471 14.7742 11.9789 14.0029 12.5066C13.2317 13.0343 12.6007 13.7421 12.1645 14.5686C11.7284 15.3951 11.5003 16.3155 11.5 17.25V37.2923C11.5 50.1723 14.968 62.3228 21.2678 71.4977C27.7941 81.0067 36.5772 86.232 46 86.232C55.4228 86.232 64.2059 80.9959 70.7322 71.4977C77.032 62.33 80.5 50.1795 80.5 37.2995V17.25C80.4983 16.3143 80.2683 15.3931 79.8299 14.5664C79.3915 13.7398 78.758 13.0326 77.9844 12.5062ZM23.7188 45.0405C23.2103 44.4686 22.9498 43.7181 22.9946 42.9542C23.0168 42.5759 23.1133 42.2058 23.2785 41.8648C23.4438 41.5238 23.6746 41.2187 23.9577 40.9669C24.2409 40.7152 24.5709 40.5216 24.9288 40.3974C25.2868 40.2731 25.6657 40.2206 26.044 40.2428C26.8079 40.2876 27.5228 40.6341 28.0312 41.2059C28.9944 42.2841 31.2117 43.125 33.0625 43.125C34.9133 43.125 37.145 42.2805 38.0938 41.2059C38.3455 40.9228 38.6506 40.692 38.9916 40.5267C39.3326 40.3615 39.7028 40.265 40.081 40.2428C40.4593 40.2206 40.8382 40.2731 41.1962 40.3974C41.5541 40.5216 41.8841 40.7152 42.1673 40.9669C42.4504 41.2187 42.6812 41.5238 42.8465 41.8648C43.0117 42.2058 43.1082 42.5759 43.1304 42.9542C43.1526 43.3325 43.1001 43.7114 42.9758 44.0694C42.8516 44.4273 42.658 44.7573 42.4062 45.0405C40.3398 47.3333 36.5916 48.875 33.0625 48.875C29.5334 48.875 25.7852 47.3333 23.7188 45.0405ZM57.0041 67.717C56.7431 68.1095 56.3896 68.4318 55.9747 68.6555C55.5598 68.8793 55.0963 68.9975 54.625 69C54.0594 69.0009 53.5064 68.8332 53.0366 68.5184C50.697 66.9659 48.875 66.125 46 66.125C43.125 66.125 41.303 66.9659 38.967 68.5184C38.3322 68.9249 37.5631 69.0658 36.8254 68.9107C36.0878 68.7557 35.4405 68.3171 35.023 67.6895C34.6055 67.0618 34.4512 66.2953 34.5934 65.5551C34.7355 64.8148 35.1627 64.1599 35.783 63.7316C38.8125 61.7155 41.7091 60.375 46 60.375C50.2909 60.375 53.1875 61.7155 56.217 63.7316C56.8517 64.1539 57.2927 64.811 57.443 65.5583C57.5933 66.3057 57.4406 67.0822 57.0184 67.717H57.0041ZM68.2525 45.0405C66.2005 47.3333 62.4522 48.875 58.9087 48.875C55.3653 48.875 51.6314 47.3333 49.565 45.0405C49.0565 44.4648 48.7975 43.7107 48.845 42.944C48.8926 42.1774 49.2427 41.4611 49.8184 40.9526C50.394 40.4441 51.1481 40.1851 51.9148 40.2326C52.6814 40.2801 53.3978 40.6302 53.9062 41.2059C54.8694 42.2841 57.0867 43.125 58.9375 43.125C60.7883 43.125 63.02 42.2805 63.9688 41.2059C64.2205 40.9228 64.5256 40.692 64.8666 40.5267C65.2076 40.3615 65.5778 40.265 65.956 40.2428C66.3343 40.2206 66.7132 40.2731 67.0712 40.3974C67.4291 40.5216 67.7591 40.7152 68.0423 40.9669C68.3254 41.2187 68.5562 41.5238 68.7215 41.8648C68.8867 42.2058 68.9832 42.5759 69.0054 42.9542C69.0276 43.3325 68.9751 43.7114 68.8508 44.0694C68.7266 44.4273 68.533 44.7573 68.2812 45.0405H68.2525Z" fill="#FF4C29"/>
</svg>
