<svg width="92" height="91" viewBox="0 0 92 91" fill="none" xmlns="http://www.w3.org/2000/svg">
<g clip-path="url(#clip0_1528_25)">
<path d="M44.1573 8.12174L39.3798 5.25903L38.4698 10.7532C37.0213 19.4285 31.095 27.4896 24.5581 33.1543C11.7613 44.2487 8.95921 56.3063 12.9215 66.2594C16.7132 75.784 26.3364 82.3057 36.1038 83.3939L38.3636 83.6442C32.7747 80.2279 29.1878 72.2464 30.439 66.2821C31.6751 60.4202 35.8914 54.9299 43.9904 49.8642L48.074 47.3162L49.5983 51.8852C50.4969 54.5848 52.0515 56.7537 53.6326 58.9566C54.391 60.0183 55.1607 61.0913 55.8659 62.2326C58.304 66.1949 58.9485 70.6008 57.375 74.9726C55.9418 78.9463 53.5795 82.0706 50.3225 83.8034L54.0004 83.3939C63.1687 82.374 69.8989 79.2383 74.2707 73.9944C78.6045 68.796 80.125 62.1037 80.125 54.9792C80.125 48.3437 77.3988 41.5036 74.1835 35.8123C70.4146 29.1465 65.4968 23.6107 60.1278 18.2455C59.1988 20.1034 59.2708 20.8542 57.3598 23.8382C54.8793 17.2475 50.2211 11.7023 44.1573 8.12174Z" fill="#FF4C29"/>
</g>
<defs>
<clipPath id="clip0_1528_25">
<rect width="91" height="91" fill="white" transform="translate(0.5)"/>
</clipPath>
</defs>
</svg>
