<svg width="217" height="61" viewBox="0 0 217 61" fill="none" xmlns="http://www.w3.org/2000/svg">
<path d="M52.141 29.3574V25.8081H56.5341V22.0178H52.141V18.9239H56.5341V15.1335H52.141V11.5842H59.0119L62.5746 15.1335V18.7498L60.7932 20.5311L62.5746 22.3124V25.8081L59.0119 29.3574H52.141ZM45.2835 29.3574V11.5842H51.2035V29.3574H45.2835ZM65.1461 29.3574V15.1335H71.0661V29.3574H65.1461ZM74.535 22.1383V18.6828H72.017V17.1291L73.9993 15.1335H77.5887L80.4683 18.4551V22.1383H74.535ZM85.5847 29.3574L82.0354 25.8081V18.6828L85.5847 15.1335H87.9553V29.3574H85.5847ZM88.8929 23.6518V21.174H92.0135V18.6828H88.8929V15.1335H93.9154L97.4647 18.6828V23.6518H88.8929ZM88.8929 29.3574V26.0358H96.8486V27.5761L95.0807 29.3574H88.8929ZM108.729 29.3574V18.6828H100.304V16.9148L102.085 15.1335H110.965L114.515 18.6828V29.3574H108.729ZM101.496 29.3574L99.1121 27.0136V23.4509L101.496 21.0802H107.791V23.5446H104.737V26.0358H107.791V27.6029L106.023 29.3574H101.496ZM117.193 29.3574V9.70912H123.113V29.3574H117.193ZM124.037 27.3484V19.2319L126.77 15.1335H132.891L124.037 27.3484ZM126.77 29.3574L125.792 26.4912L129.288 21.7767L133.199 29.3574H126.77ZM146.15 29.3574V23.7054L140.123 11.5842H145.936L152.084 24.1206V29.3574H146.15ZM152.459 22.875L149.579 17.0354L152.499 11.5842H158.191L152.459 22.875ZM160.508 29.3574L156.959 25.8081V18.6828L160.508 15.1335H164.486V18.6828H162.946V26.0358H164.486V29.3574H160.508ZM165.423 29.3574V26.0358H166.897V18.6828H165.423V15.1335H169.388L172.937 18.6828V25.8081L169.388 29.3574H165.423ZM179.058 29.3574L175.495 25.8081V15.1335H181.415V25.8081H184.054V27.5761L182.339 29.3574H179.058ZM184.991 29.3574V15.1335H190.911V29.3574H184.991ZM193.697 29.3574V15.1335H199.617V29.3574H193.697ZM203.086 22.1383V18.6828H200.568V17.1291L202.55 15.1335H206.14L209.019 18.4551V22.1383H203.086ZM56.2662 54.3574V47.7008H48.5783L45.0157 44.1382V40.1335L48.5783 36.5842H50.5874V42.8926H58.7574L62.1996 46.4552V50.8081L58.6503 54.3574H56.2662ZM56.2662 41.5666V39.7853H51.5249V36.5842H58.6369L61.7174 39.6781V41.5666H56.2662ZM48.0024 54.3574L45.0157 50.8081V49.0268H50.9356V51.143H55.3287V54.3574H48.0024ZM64.7577 38.3656V34.5886H70.6911V38.3656H64.7577ZM64.7577 54.3574V40.1335H70.6911V54.3574H64.7577ZM76.8253 54.3574L73.5037 51.0358V34.7091H79.4236V50.8081H82.0755V54.3574H76.8253ZM86.6829 54.3574L83.1336 50.8081V43.6828L86.6829 40.1335H89.0536V54.3574H86.6829ZM89.9911 48.6518V46.174H93.1118V43.6828H89.9911V40.1335H95.0137L98.563 43.6828V48.6518H89.9911ZM89.9911 54.3574V51.0358H97.9469V52.5761L96.1789 54.3574H89.9911ZM110.47 54.3574V43.6828H107.925V42.1291L109.907 40.1335H113.202L116.403 43.3346V54.3574H110.47ZM100.987 54.3574V40.1335H106.961V54.3574H100.987ZM122.578 54.3574L119.028 50.8081V43.6828L122.578 40.1335H124.948V54.3574H122.578ZM128.511 45.8124V43.6828H125.886V40.1335H130.882L134.431 43.6828V45.8124H128.511ZM125.886 54.3574V51.0358H128.511V49.2545H134.431V50.8081L130.882 54.3574H125.886ZM140.177 54.3574L136.627 50.8081V43.6828L140.177 40.1335H142.547V54.3574H140.177ZM143.485 48.6518V46.174H146.606V43.6828H143.485V40.1335H148.507L152.057 43.6828V48.6518H143.485ZM143.485 54.3574V51.0358H151.441V52.5761L149.673 54.3574H143.485Z" fill="#55564F"/>
<g clip-path="url(#clip0_1467_14)">
<path d="M36.8477 24.7449C36.8219 24.2646 36.7533 23.787 36.7238 23.3067C36.6878 22.7169 36.5833 22.1516 36.3136 21.619C36.2406 21.4752 36.2496 21.2887 36.2245 21.1429C36.4657 20.9758 36.6627 20.8396 36.847 20.7122C36.7874 20.3922 36.6781 20.1473 36.3811 20.1431C36.1039 20.1396 35.9709 19.9737 35.8571 19.7799C35.717 19.5419 35.5825 19.2935 35.4942 19.0326C35.3114 18.4935 34.9661 18.135 34.4649 17.8927C34.2226 17.776 33.9878 17.6142 33.7971 17.4235C33.4522 17.0779 33.102 16.7693 32.5971 16.7071C32.5012 16.6953 32.4098 16.6396 32.317 16.6018C32.1484 16.5335 32.0113 16.4503 32.0016 16.2279C31.9926 16.0212 31.8405 15.9315 31.6551 15.8858C31.4132 15.8259 31.1697 15.7667 30.9334 15.6881C30.6731 15.6019 30.5375 15.4326 30.5297 15.1243C30.5218 14.7989 30.4682 14.467 30.3825 14.1531C30.2413 13.6369 29.9244 13.278 29.4128 13.0742C28.9866 12.9045 28.5427 12.8629 28.106 12.7656C27.4135 12.6119 26.8304 12.7874 26.324 13.2806C26.2023 13.3996 26.0569 13.4931 25.885 13.6274C25.5326 13.2642 25.2052 12.9266 24.9101 12.6226V11.9355C25.0547 11.8661 25.2146 11.7959 25.3682 11.7135C25.694 11.538 25.7551 11.4072 25.6554 11.0349C25.6105 10.8666 25.5285 10.7072 25.4521 10.5492C25.3652 10.3703 25.2655 10.1979 25.1779 10.0346C25.5659 9.56196 25.5801 9.44484 25.309 9.01377C24.9187 8.39425 24.346 7.9895 23.7198 7.66142C23.4775 7.53439 23.2075 7.50425 22.9198 7.57445C22.3868 7.70453 21.8456 7.80219 21.3052 7.89871C21.0673 7.94105 20.8157 8.02612 20.5479 7.80181C20.5685 7.20136 20.5647 6.56963 20.6183 5.94286C20.6786 5.2417 20.5685 4.57716 20.3138 3.9336C20.1748 3.58226 20.061 3.20345 19.846 2.90361C19.1726 1.96478 18.3628 1.1858 17.2062 0.891681C17.1583 0.879473 17.113 0.855821 17.0665 0.837129C16.6156 0.658596 16.1654 0.555597 15.683 0.739852C15.5261 0.799744 15.3369 0.766174 15.1639 0.789444C14.3875 0.894732 13.6137 1.06983 13.0313 1.6226C12.5084 2.11852 12.02 2.66366 11.7002 3.34345C11.35 4.08772 11.1346 4.85831 11.0942 5.68078C11.0717 6.14046 11.0076 6.58947 10.7507 6.98544C10.5702 7.26354 10.5885 7.55995 10.6608 7.85789C10.8578 8.0265 11.05 8.18443 11.2342 8.35076C11.3256 8.43354 11.4346 8.51861 11.4814 8.62657C11.7024 9.13851 12.1691 9.48414 12.3676 10.0087C12.3852 10.0541 12.42 10.0972 12.4567 10.1304C12.9927 10.6194 13.1418 11.2229 12.974 11.9226C12.9624 11.971 12.9717 12.024 12.9665 12.0744C12.9301 12.4189 12.8526 12.5337 12.5017 12.5276C12.0732 12.52 11.8039 12.7206 11.5687 13.0494C11.2151 13.5442 10.9095 14.0623 10.6657 14.6234C10.3604 15.3257 10.1743 16.0654 10.0264 16.8086C9.92598 17.311 9.56979 17.7821 9.78628 18.3398C9.79864 18.3715 9.75781 18.4394 9.7241 18.4722C9.50912 18.6847 9.55481 18.9338 9.62223 19.184C9.73721 19.6132 9.68852 20.0206 9.57541 20.4524C9.45519 20.9121 9.43646 21.4023 9.405 21.8815C9.39152 22.0901 9.37316 22.2725 9.24957 22.451C9.10724 22.6563 9.12559 22.8794 9.27803 23.0858C9.33571 23.1644 9.40874 23.2472 9.2608 23.3803C8.93982 23.3395 8.61135 23.3895 8.44244 23.7885C8.37577 23.946 8.2091 23.9663 8.05592 23.9685C7.80048 23.9724 7.56864 23.9018 7.34429 23.7248C7.36077 23.5684 7.37875 23.4215 7.39149 23.2739C7.40871 23.0732 7.46901 22.8611 7.42632 22.6742C7.36527 22.4072 7.40984 22.1767 7.49785 21.9345C7.61022 21.6259 7.71621 21.3127 7.60722 20.9949C7.54055 20.9545 7.50122 20.9125 7.45703 20.9068C7.22594 20.8763 7.1001 20.7614 7.0941 20.5108C7.08661 20.1812 7.05965 19.852 7.04691 19.5224C6.9956 18.1781 6.94279 16.8337 6.89859 15.489C6.88511 15.085 6.89635 14.6799 6.89635 14.2687C7.24467 13.994 7.58213 13.7334 7.91359 13.4649C8.16715 13.2593 8.42558 13.0571 8.65855 12.829C8.88701 12.6046 8.80761 12.2628 8.50012 12.1652C8.29038 12.0988 8.06078 12.0858 7.83906 12.0721C7.41546 12.0465 6.99111 12.0416 6.56713 12.0202C6.33679 12.0088 6.20645 11.8592 6.15139 11.646C6.11993 11.5251 6.10982 11.3961 6.10682 11.2698C6.07274 9.82213 6.04128 8.37403 6.00982 6.92593C6.00757 6.82446 5.99109 6.71612 6.01881 6.62227C6.19372 6.02335 6.11057 5.41222 6.10944 4.80567C6.10944 4.66299 6.05851 4.51994 6.02779 4.35971C5.85026 4.33759 5.70457 4.29944 5.56112 4.30554C5.30606 4.31661 5.20419 4.42113 5.20381 4.69008C5.20306 5.19783 5.157 5.71893 5.25175 6.21027C5.34988 6.7165 5.3585 7.21624 5.36823 7.7217C5.38958 8.81426 5.40456 9.90682 5.42029 10.9994C5.42404 11.2504 5.42104 11.5014 5.42104 11.7944C5.22329 11.7196 5.07647 11.6643 4.9319 11.6097C4.70568 11.826 4.70006 12.0721 4.65512 12.304C4.84875 12.3971 4.99932 12.47 5.16074 12.5474C4.99594 13.3142 4.8656 14.0581 4.67309 14.7852C4.43339 15.6908 4.2862 16.5877 4.3817 17.5372C4.53414 19.0581 4.35399 20.5821 4.32365 22.1054C4.3214 22.2294 4.28807 22.353 4.26709 22.4918C4.12739 22.5632 3.98844 22.6189 3.86634 22.7009C3.74424 22.7829 3.60266 22.871 3.53675 22.9939C3.47083 23.1163 3.48955 23.2853 3.46746 23.4333C3.46409 23.4562 3.44498 23.4825 3.42588 23.4955C3.08805 23.7187 3.14311 24.0406 3.18206 24.379C3.21052 24.6274 3.19779 24.8887 3.15697 25.1363C3.07082 25.6555 3.22438 26.0823 3.56933 26.4547C3.68694 26.5813 3.78993 26.7263 3.92252 26.8338C4.27196 27.118 4.63377 27.3858 5.01579 27.68C5.0334 27.8028 5.04838 27.9539 5.07722 28.1019C5.10456 28.2434 5.14651 28.3823 5.17797 28.5055C4.77309 28.8503 4.77309 28.8526 4.43526 28.8519C3.8963 28.8503 3.35584 28.6997 2.81913 28.9285C2.67381 28.9907 2.47456 28.9232 2.3004 28.9133C2.10114 28.9018 1.90152 28.8763 1.70264 28.8786C1.28915 28.8835 1.12435 29.0396 1.05394 29.4554C0.973412 29.9299 0.881276 30.4026 0.805994 30.8783C0.762922 31.1503 0.705618 31.4303 0.920602 31.7412C1.25169 31.7698 1.62061 31.8061 1.98953 31.8328C2.6225 31.8782 2.71127 31.956 2.7255 32.6171C2.74085 33.3259 2.72887 34.0354 2.72887 34.7465C2.61126 34.8373 2.52212 34.9323 2.41351 34.9853C1.70825 35.3294 1.14008 35.9711 0.280143 35.989C0.140441 35.9917 0.025083 36.1347 0.00523251 36.3094C-0.0449555 36.7489 0.239318 37.7583 0.55805 38.2496C0.776405 38.2943 0.931838 38.1546 1.09177 38.0383C1.78241 37.5363 2.47006 37.03 3.15959 36.5265C3.30116 36.4227 3.43712 36.306 3.59031 36.2244C3.85623 36.0828 4.22477 36.1397 4.43039 36.33C4.7098 36.5879 4.77834 36.8607 4.64388 37.2132C4.58058 37.3787 4.50155 37.5378 4.43713 37.703C3.99368 38.8356 3.5094 39.9537 3.12176 41.1054C2.66932 42.4497 2.30265 43.8238 1.8959 45.1842C1.84496 45.3551 1.82099 45.5641 1.74271 45.7114C1.72174 45.8567 1.70001 46.0021 1.67155 46.1463C1.63222 46.345 1.58728 46.543 1.5502 46.7421C1.53934 46.8013 1.52885 46.8604 1.51949 46.9195C1.51724 46.9333 1.51537 46.947 1.51312 46.9607C1.50451 47.0584 1.49439 47.1553 1.49252 47.2537C1.4914 47.3109 1.49177 47.3685 1.49514 47.4258C1.49664 47.4494 1.50076 47.4738 1.50076 47.4975C1.50076 47.5013 1.50076 47.504 1.50076 47.507C1.509 47.536 1.51911 47.5654 1.52248 47.5764C1.52735 47.5944 1.53634 47.6142 1.54046 47.6329C1.55132 47.6565 1.56368 47.6882 1.57792 47.7122C1.58054 47.7138 1.58353 47.7157 1.58728 47.718C1.58765 47.718 1.5884 47.7187 1.58878 47.7191C1.5723 47.6924 1.55469 47.6577 1.57679 47.6974C1.58653 47.7149 1.60638 47.7256 1.61986 47.7405C1.62848 47.747 1.63747 47.7531 1.64646 47.7592C1.68691 47.7859 1.72885 47.8107 1.77118 47.8336C1.78129 47.8389 1.79178 47.8442 1.80189 47.8496C1.95358 47.8458 2.10489 47.8389 2.25658 47.8423C2.72812 47.8522 3.21052 47.9842 3.66821 48.1498C4.47384 48.2417 5.27909 48.3371 6.08547 48.4199C6.30533 48.4424 6.53454 48.4271 6.75327 48.3898C7.0735 48.3348 7.18586 48.1982 7.20871 47.8828C7.22182 47.7061 7.21283 47.5272 7.20984 47.3495C7.19073 46.2821 7.17088 45.2151 7.15103 44.1477C7.11096 42.0133 7.08099 39.8786 7.02369 37.7446C7.00983 37.2242 7.11395 36.8412 7.66602 36.7085C7.73306 36.6924 7.78812 36.6264 7.82707 36.599C7.79149 36.4033 7.76602 36.2617 7.73606 36.0973C8.16191 35.844 8.56978 35.6006 8.97765 35.3584C9.29526 35.1699 9.41549 34.8976 9.35593 34.5241C9.28028 34.048 9.22185 33.5685 9.16455 33.0897C9.15069 32.9764 9.17016 32.8589 9.17803 32.6415C9.3653 32.7884 9.50388 32.8547 9.58103 32.9654C9.82523 33.3163 10.0773 33.6501 10.3882 33.9511C10.6518 34.2059 10.8739 34.5218 10.9421 34.925C10.9736 35.1123 11.1088 35.2844 11.2091 35.4557C11.3088 35.6262 11.4256 35.7864 11.5312 35.9535C11.6256 36.1023 11.7121 36.2564 11.8073 36.4044C11.9818 36.6764 12.2238 36.7519 12.5219 36.6451C12.8275 36.5353 13.1301 36.4166 13.438 36.3148C13.6069 36.2594 13.78 36.2465 13.9171 36.4803C13.7747 36.7481 13.5773 37.0178 13.4863 37.3207C13.3949 37.6251 13.4111 37.9628 13.3762 38.2851C13.3545 38.4861 13.2961 38.6872 13.3043 38.8859C13.3335 39.5951 13.3777 40.3043 13.4313 41.0119C13.4421 41.1557 13.4852 41.3198 13.5695 41.4304C13.7822 41.71 13.8436 42.0198 13.8421 42.3586C13.8414 42.4822 13.8279 42.6332 13.8886 42.7248C14.0946 43.0353 14.0324 43.358 13.9762 43.6831C13.9159 44.0329 13.8702 44.3888 13.7702 44.7275C13.6227 45.2269 13.5755 45.7205 13.7032 46.2275C13.7612 46.4583 13.7508 46.688 13.6418 46.8959C13.4938 47.1789 13.4886 47.4788 13.4856 47.7851C13.4755 48.8277 13.5032 49.8668 13.6264 50.9041C13.8062 52.4155 13.953 53.9307 14.1298 55.4426C14.1912 55.9698 14.3598 56.4893 14.3759 57.0158C14.4047 57.9718 14.6504 58.8774 14.8804 59.7884H25.6633C25.473 59.3653 25.2809 58.9438 25.0138 58.5596C24.9311 58.4406 24.9094 58.2781 24.8588 58.1362C24.5715 57.3244 24.2989 56.5073 23.9925 55.7031C23.7408 55.0416 23.7232 55.0485 24.379 54.7967C24.6895 54.6773 24.8236 54.4896 24.8007 54.1688C24.7902 54.0181 24.7464 53.8697 24.7146 53.7209C24.6622 53.4756 24.6067 53.2311 24.5607 53.0224C24.8019 52.6753 25.0337 52.38 25.2228 52.0584C25.3757 51.799 25.4786 51.5087 25.6007 51.2306C25.9124 50.5222 26.1258 49.8024 25.8588 49.0226C25.7802 48.7926 25.8034 48.5755 25.9876 48.3718C26.5 48.2902 27.0109 48.1677 27.1884 47.4803C26.9206 47.1087 26.6307 46.7067 26.3959 46.3801C26.7674 45.3841 27.1086 44.4685 27.4517 43.5495C27.5487 43.5041 27.6397 43.4648 27.7277 43.4194C28.3229 43.1154 28.6161 42.6286 28.5929 41.9462C28.5779 41.5162 28.5903 41.0867 28.4566 40.6663C28.3817 40.4309 28.3641 40.1769 28.3154 39.9026C28.8618 40.1826 29.3604 40.4378 29.887 40.7075C29.887 40.7094 29.8873 40.7113 29.8877 40.7132C30.124 40.7098 30.354 40.7334 30.59 40.7647H31.9188C32.2286 40.7022 32.5424 40.6434 32.8436 40.5473C32.8773 40.5366 32.9053 40.5278 32.9301 40.5194C33.0379 40.4592 33.1421 40.4004 33.2451 40.3428C33.2623 40.3123 33.2791 40.2822 33.2803 40.2806C33.3469 40.1628 33.4248 40.0384 33.5151 39.9239C33.663 39.4311 33.8503 38.9531 33.9589 38.4488C33.978 38.3603 33.999 38.271 34.0237 38.184C34.0095 38.1295 34.0039 38.0722 34.0091 38.0139C34.0619 37.4115 34.0155 36.8095 33.9821 36.2076C33.9503 35.638 33.9027 35.0723 33.86 34.5035C33.8162 33.9156 33.8836 33.3682 33.9904 32.7914C34.0091 32.6903 34.0278 32.5862 34.0484 32.4817C33.9784 32.0166 33.9084 31.5512 33.8432 31.0854C33.7585 30.4823 33.6829 29.8777 33.4582 29.3058C33.4406 29.262 33.4481 29.2078 33.4432 29.1448C33.5132 28.9701 33.587 28.784 33.6649 28.5997C33.672 28.5825 33.7054 28.5768 33.7263 28.5661C34.6132 28.7142 35.4758 28.496 36.465 27.8776C36.465 27.7277 36.4268 27.5697 36.4713 27.4415C36.7762 26.5668 36.8979 25.6673 36.8485 24.7449H36.8477ZM12.5755 9.43988C12.223 9.18238 12.0901 8.87529 11.9908 8.51861C12.1796 8.37174 12.3556 8.3809 12.5391 8.45719C12.7065 8.89513 12.6994 8.89589 12.5755 9.43988ZM3.96971 33.7871C4.07758 33.9809 3.98132 34.1201 3.82814 34.2296C3.69143 34.3273 3.54349 34.3028 3.40566 34.2231C3.17831 34.0915 3.00378 33.9057 2.98767 33.6322C2.96558 33.2534 2.96558 32.8723 2.97531 32.4927C2.98056 32.2783 3.13637 32.1204 3.34086 32.0708C3.53225 32.0246 3.72327 32.1147 3.83188 32.3252C3.99593 32.6426 4.12814 32.9688 3.95773 33.372H3.32738C3.4109 33.7188 3.7802 33.6009 3.96971 33.7871ZM6.66001 12.4055C6.772 12.3841 6.89148 12.3201 6.95103 12.3567C7.21808 12.5211 7.47388 12.7061 7.7207 12.9003C7.82333 12.9815 7.80572 13.2043 7.68924 13.3119C7.41695 13.5633 7.15553 13.8345 6.76638 13.9856C6.53717 13.4614 6.62293 12.9461 6.66001 12.4055ZM8.54169 33.9114C8.54169 34.0038 8.51884 34.0904 8.47839 34.1659C8.47802 34.1663 8.47802 34.167 8.47764 34.1674C8.40049 34.3604 8.2503 34.5012 8.01172 34.5958C7.92108 34.6317 7.82745 34.6599 7.67351 34.7125C7.57351 34.5165 7.52894 34.3315 7.52295 34.1556C7.48587 34.0823 7.4649 33.9996 7.4649 33.9114V29.9425C7.4649 29.9006 7.46976 29.8601 7.47838 29.8212C7.49036 29.6591 7.51021 29.4863 7.53756 29.2993C7.83494 29.1223 8.10535 29.2303 8.33644 29.4447C8.37277 29.4783 8.40423 29.5393 8.42221 29.603C8.42221 29.603 8.42234 29.6031 8.42259 29.6034C8.49675 29.6957 8.54169 29.8136 8.54169 29.9425V33.9114Z" fill="#55564F"/>
</g>
<defs>
<clipPath id="clip0_1467_14">
<rect width="36.859" height="59.1458" fill="white" transform="translate(0 0.642578)"/>
</clipPath>
</defs>
</svg>
