<svg width="93" height="92" viewBox="0 0 93 92" fill="none" xmlns="http://www.w3.org/2000/svg">
<path d="M17.7634 46C15.6474 46 13.8879 44.275 14.1773 42.1763C15.9675 29.1679 26.7526 19.1667 39.7917 19.1667C49.3693 19.1667 57.7317 24.5621 62.2052 32.5834H82.9167C83.425 32.5834 83.9125 32.7853 84.272 33.1447C84.6314 33.5042 84.8333 33.9917 84.8333 34.5C84.8333 35.0084 84.6314 35.4959 84.272 35.8553C83.9125 36.2148 83.425 36.4167 82.9167 36.4167H63.9685C64.6432 38.249 65.1319 40.1772 65.406 42.1763C65.6935 44.275 63.9359 46 61.818 46H40.7002H17.7634Z" fill="#FF4C29"/>
<path fill-rule="evenodd" clip-rule="evenodd" d="M8.48483 57.4023C7.16616 53.6782 10.1082 49.8334 14.2751 49.8334H78.7249C82.8917 49.8334 85.8338 53.6782 84.5152 57.4023L81.8376 64.9693C80.1758 69.6651 75.5107 72.8334 70.2552 72.8334H22.7448C17.4893 72.8334 12.8242 69.6651 11.1624 64.9693L8.48483 57.4023ZM31.1667 61.3334C31.1667 62.6042 30.6618 63.823 29.7632 64.7216C28.8646 65.6202 27.6458 66.125 26.375 66.125C25.1042 66.125 23.8854 65.6202 22.9868 64.7216C22.0882 63.823 21.5833 62.6042 21.5833 61.3334C21.5833 60.0625 22.0882 58.8438 22.9868 57.9452C23.8854 57.0465 25.1042 56.5417 26.375 56.5417C27.6458 56.5417 28.8646 57.0465 29.7632 57.9452C30.6618 58.8438 31.1667 60.0625 31.1667 61.3334ZM46.5 66.125C47.7708 66.125 48.9896 65.6202 49.8882 64.7216C50.7868 63.823 51.2917 62.6042 51.2917 61.3334C51.2917 60.0625 50.7868 58.8438 49.8882 57.9452C48.9896 57.0465 47.7708 56.5417 46.5 56.5417C45.2292 56.5417 44.0104 57.0465 43.1118 57.9452C42.2132 58.8438 41.7083 60.0625 41.7083 61.3334C41.7083 62.6042 42.2132 63.823 43.1118 64.7216C44.0104 65.6202 45.2292 66.125 46.5 66.125ZM71.4167 61.3334C71.4167 62.6042 70.9118 63.823 70.0132 64.7216C69.1146 65.6202 67.8958 66.125 66.625 66.125C65.3542 66.125 64.1354 65.6202 63.2368 64.7216C62.3382 63.823 61.8333 62.6042 61.8333 61.3334C61.8333 60.0625 62.3382 58.8438 63.2368 57.9452C64.1354 57.0465 65.3542 56.5417 66.625 56.5417C67.8958 56.5417 69.1146 57.0465 70.0132 57.9452C70.9118 58.8438 71.4167 60.0625 71.4167 61.3334Z" fill="#FF4C29"/>
</svg>
