<svg width="215" height="69" viewBox="0 0 215 69" fill="none" xmlns="http://www.w3.org/2000/svg">
<path d="M87.5498 9.6781H90.5038L93.0725 19.7451H93.3294L96.5403 9.6781H99.2802L102.491 19.7451H102.705L105.188 9.6781H108.099L104.546 22.5535H100.736L97.9102 13.6963H97.8246L94.999 22.5535H91.1032L87.5498 9.6781Z" fill="#00344D"/>
<path d="M115.035 17.0231H119.273L117.518 12.3569H116.833L115.035 17.0231ZM115.035 9.6781H119.359L124.325 22.5535H121.371L120.215 19.4859H114.093L112.937 22.5535H110.069L115.035 9.6781Z" fill="#00344D"/>
<path d="M134.6 16.2454C136.141 16.2454 136.697 15.3813 136.697 14.2147C136.697 13.0482 136.141 12.2273 134.6 12.2273H130.704V16.2454H134.6ZM127.921 9.6781H134.685C137.939 9.6781 139.523 11.2335 139.523 14.1283C139.523 16.2454 138.581 17.628 136.783 18.2329L140.037 22.5535H136.74L134.043 18.7514H130.704V22.5535H127.878V9.6781H127.921Z" fill="#00344D"/>
<path d="M150.483 16.2454C152.024 16.2454 152.581 15.3813 152.581 14.2147C152.581 13.0482 152.024 12.2273 150.483 12.2273H146.587V16.2454H150.483ZM143.761 9.6781H150.526C153.779 9.6781 155.363 11.2335 155.363 14.1283C155.363 16.2454 154.421 17.628 152.623 18.2329L155.877 22.5535H152.581L149.883 18.7514H146.544V22.5535H143.719V9.6781H143.761Z" fill="#00344D"/>
<path d="M162.47 9.6781H159.644V22.5535H162.47V9.6781Z" fill="#00344D"/>
<path d="M177.839 16.1159C177.839 13.5235 176.384 11.9249 173.729 11.9249C171.075 11.9249 169.577 13.5235 169.577 16.1159C169.577 18.7082 171.032 20.3069 173.687 20.3069C176.298 20.3069 177.839 18.7082 177.839 16.1159ZM166.666 16.1159C166.666 12.0113 169.363 9.37573 173.687 9.37573C178.011 9.37573 180.708 12.0113 180.708 16.1159C180.708 20.2204 178.011 22.856 173.687 22.856C169.363 22.856 166.666 20.1772 166.666 16.1159Z" fill="#00344D"/>
<path d="M191.582 16.2455C193.123 16.2455 193.68 15.3814 193.68 14.2149C193.68 13.0483 193.123 12.2274 191.582 12.2274H187.686V16.2455H191.582ZM184.903 9.67822H191.667C194.921 9.67822 196.505 11.2336 196.505 14.1284C196.505 16.2455 195.563 17.6281 193.765 18.233L197.019 22.5536H193.722L191.025 18.7515H187.686V22.5536H184.86V9.67822H184.903Z" fill="#00344D"/>
<path d="M200.273 21.5598V18.665C202.071 19.6588 204.211 20.2637 206.009 20.2637C207.722 20.2637 208.621 19.7452 208.621 18.9243C208.621 18.0601 207.893 17.8009 204.982 17.2824C202.756 16.8936 200.273 16.2023 200.273 13.6531C200.273 11.4928 202.028 9.41895 206.009 9.41895C207.593 9.41895 209.477 9.89421 210.761 10.6287V13.5235C209.306 12.573 207.422 12.0113 205.795 12.0113C203.954 12.0113 203.227 12.573 203.227 13.3507C203.227 14.4308 204.811 14.5605 206.823 14.9061C209.049 15.295 211.618 15.9431 211.618 18.7514C211.618 20.2637 210.804 22.8992 206.052 22.8992C203.569 22.856 201.728 22.2943 200.273 21.5598Z" fill="#00344D"/>
<path d="M108.356 36.1203C108.356 38.7126 109.855 40.3545 112.509 40.3545C113.451 40.3545 114.221 40.1816 114.864 39.836L111.353 37.5893L112.851 35.6018L116.405 38.0213C116.619 37.5029 116.704 36.898 116.704 36.1635C116.704 33.5711 115.163 31.9725 112.552 31.9725C109.855 31.9293 108.356 33.5279 108.356 36.1203ZM119.487 36.1203C119.487 37.3732 119.188 38.5398 118.631 39.5335L119.873 40.3977V43.3357L117.09 41.3914C115.891 42.3419 114.264 42.8604 112.509 42.8604C108.228 42.8604 105.488 40.2248 105.488 36.1203C105.488 32.0157 108.228 29.3801 112.509 29.3801C116.79 29.3801 119.487 32.0157 119.487 36.1203Z" fill="#00344D"/>
<path d="M123.811 37.5893V29.6394H126.637V37.4165C126.637 39.5336 128.221 40.1817 129.933 40.1817C131.646 40.1817 133.23 39.5336 133.23 37.5029V29.6394H136.055V37.4597C136.055 41.3914 133.315 42.8172 129.89 42.8172C126.465 42.8604 123.811 41.3914 123.811 37.5893Z" fill="#00344D"/>
<path d="M143.933 29.6825H141.107V42.5579H143.933V29.6825Z" fill="#00344D"/>
<path d="M149.027 29.6825H159.644L159.73 32.2317H151.81V34.608H158.189V37.1571H151.81V40.0087H160.03L159.944 42.5579H149.027V29.6825Z" fill="#00344D"/>
<path d="M167.821 32.2749H163.198L163.326 29.6825H175.142L175.271 32.2749H170.647V42.5579H167.821V32.2749Z" fill="#00344D"/>
<path d="M87.5498 49.6437H90.5038L93.0725 59.7107H93.3294L96.5403 49.6437H99.2802L102.491 59.7107H102.705L105.188 49.6437H108.099L104.546 62.5191H100.736L97.9102 53.705H97.8246L94.999 62.5191H91.1032L87.5498 49.6437Z" fill="#00344D"/>
<path d="M115.506 56.9887H119.744L117.989 52.3224H117.304L115.506 56.9887ZM115.506 49.6437H119.83L124.796 62.5191H121.842L120.686 59.4514H114.564L113.408 62.5191H110.497L115.506 49.6437Z" fill="#00344D"/>
<path d="M131.089 52.2792H126.508L126.594 49.6437H138.453L138.538 52.2792H133.915V62.5191H131.089V52.2792Z" fill="#00344D"/>
<path d="M142.777 49.6437H153.394L153.48 52.1928H145.559V54.5692H151.938V57.1615H145.559V59.9699H153.779L153.694 62.5191H142.777V49.6437Z" fill="#00344D"/>
<path d="M165.081 56.2542C166.623 56.2542 167.179 55.3901 167.179 54.2235C167.179 53.057 166.623 52.236 165.081 52.236H161.186V56.2542H165.081ZM158.36 49.6437H165.124C168.378 49.6437 169.962 51.1991 169.962 54.0939C169.962 56.211 169.02 57.5936 167.222 58.1985L170.476 62.5191H167.179L164.482 58.7169H161.143V62.5191H158.317V49.6437H158.36Z" fill="#00344D"/>
<path d="M174.2 61.5254V58.6306C175.998 59.6243 178.139 60.2292 179.937 60.2292C181.65 60.2292 182.549 59.7108 182.549 58.8898C182.549 58.0257 181.821 57.7665 178.91 57.248C176.683 56.8592 174.2 56.1679 174.2 53.6187C174.2 51.4584 175.956 49.3845 179.937 49.3845C181.521 49.3845 183.405 49.8598 184.689 50.5943V53.4891C183.234 52.5386 181.35 51.9769 179.723 51.9769C177.882 51.9769 177.154 52.5386 177.154 53.3163C177.154 54.3964 178.738 54.526 180.751 54.8717C182.977 55.2605 185.545 55.9086 185.545 58.717C185.545 60.2292 184.732 62.8648 179.98 62.8648C177.497 62.8216 175.656 62.2599 174.2 61.5254Z" fill="#00344D"/>
<path d="M92.9869 36.9844L95.2559 39.7927C94.3997 40.6137 93.6291 41.0457 92.9869 41.0457C92.516 41.0457 92.0879 40.8729 91.7026 40.484C91.3173 40.0952 91.146 39.6631 91.146 39.1447C91.146 38.8422 91.2744 38.5398 91.5313 38.2373C91.7454 37.9349 92.2591 37.5028 92.9869 36.9844ZM93.0725 33.2686C92.8157 32.9662 92.6872 32.6205 92.6872 32.2749C92.6872 32.0157 92.7728 31.8428 92.9869 31.67C93.201 31.4972 93.415 31.4108 93.7147 31.4108C94.0572 31.4108 94.2712 31.4972 94.4853 31.67C94.6566 31.8428 94.7422 32.0589 94.7422 32.3181C94.7422 32.5773 94.6994 32.7502 94.5281 32.923C94.4425 33.0094 94.3569 33.139 94.1856 33.2686C94.0144 33.3983 93.8003 33.5711 93.5434 33.7871L93.0725 33.2686ZM98.4668 39.836C98.7665 39.4903 99.0233 39.2311 99.2374 38.9718C99.4942 38.6694 99.7083 38.4102 99.8796 38.1509L100.008 37.9781L98.3811 36.2931L98.2099 36.5091C97.9958 36.7683 97.7818 37.0276 97.5677 37.2868C97.3965 37.5028 97.1824 37.7189 96.9684 37.9781L94.999 35.5586C95.7268 34.9537 96.2406 34.4352 96.5403 34.0031C96.8827 33.4847 97.054 32.923 97.054 32.3181C97.054 31.4108 96.7543 30.6763 96.1121 30.0714C95.47 29.5097 94.6994 29.2073 93.7147 29.2073C92.73 29.2073 91.9166 29.5097 91.2744 30.1146C90.6323 30.7195 90.3326 31.4972 90.3326 32.4477C90.3326 33.3551 90.7179 34.2192 91.4885 35.1265L90.6751 35.6882C89.3479 36.5955 88.7057 37.7621 88.7057 39.1447C88.7057 40.3112 89.1339 41.305 89.9473 42.0827C90.8035 42.8604 91.831 43.2492 93.0297 43.2492C94.3141 43.2492 95.5556 42.6443 96.7115 41.521L97.9102 42.99H100.993L98.4668 39.836Z" fill="#00344D"/>
<path d="M44.5671 3.1972C44.5243 2.93796 44.3102 2.76514 44.0961 2.76514H33.7358C33.1792 2.76514 32.6227 3.02437 32.2373 3.45643C31.5952 4.14773 31.0386 4.75261 29.9255 5.48711C29.2405 5.96238 27.2712 6.91291 26.1581 7.47459C25.7728 7.69062 25.3447 8.03627 25.0878 8.81398C25.0022 9.03001 24.5741 10.5422 24.3172 12.7889C24.0604 14.7764 24.0175 15.4677 24.0604 15.6837C24.0604 15.7269 24.1032 15.7701 24.1888 15.7701L30.1396 13.9555C30.1824 13.9555 30.1824 13.9555 30.1824 13.9987L27.1856 25.4051L3.38239 8.42512V27.9542V31.1083L21.2776 43.7676C17.2961 46.144 11.5594 47.2673 3.38239 44.5886V63.0807C3.38239 63.0807 9.84693 67.4877 18.8802 63.0807C22.3907 61.3525 25.1306 60.2723 27.1428 59.9699C27.0572 59.9699 27.3996 61.1797 27.4425 61.2229C27.785 62.1734 28.4271 63.0375 29.2405 63.6424C30.5677 64.6793 32.2802 65.0682 33.9498 65.1546C35.4482 65.241 36.9894 65.0682 38.4878 64.8522C39.815 64.6793 41.0993 64.3337 42.3409 63.8584C42.983 63.6424 43.5824 63.34 44.1818 63.0807C47.6923 61.3525 50.3894 60.2723 52.4444 59.9699C52.4016 59.9699 52.53 60.5316 52.53 60.5748C52.5728 60.7908 52.6584 61.0068 52.7441 61.2661C52.8297 61.5253 52.9581 61.7845 53.0866 62.0006C55.1415 65.6731 60.4073 65.8027 64.0463 65.4571C65.3735 65.3274 66.6578 65.1114 67.985 64.809C68.7556 64.6361 69.5262 64.4201 70.254 64.2041C70.5108 64.1177 72.3517 63.556 72.7371 63.3832V44.5021C64.3888 47.2673 58.5664 46.1008 54.5422 43.638L72.7371 30.8058V28.5591V8.16589L48.8482 25.0594L44.5671 3.1972Z" fill="#00344D"/>
</svg>
